#!OML:ASF F:\VICON\USERDATA\INSTALL\rory3\rory3.ASF
:FULLY-SPECIFIED
:DEGREES
614
root 2.51887 17.9382 2.15828 177.591 225.738 185.641
lowerback 11.3446 0.610938 -5.64331
upperback 2.03486 0.0807938 -0.291379
thorax -4.23809 0.0969992 2.86629
lowerneck -15.1408 -5.7297 -12.6465
upperneck 34.187 -8.99311 10.345
head 15.7047 -4.30283 4.96981
rclavicle -5.8393e-014 1.19271e-014
rhumerus -37.1452 25.2013 -97.71
rradius 99.3486
rwrist -5.31549
rhand -21.7489 15.4575
rfingers 7.12502
rthumb 4.6512 -14.4714
lclavicle -5.8393e-014 1.19271e-014
lhumerus -31.1028 -39.8734 89.7948
lradius 97.7137
lwrist -9.34468
lhand -19.9836 20.8593
lfingers 7.12502
lthumb 6.35566 50.7439
rfemur -27.3249 -11.8701 18.8823
rtibia 32.4471
rfoot -9.66185 -6.92926
rtoes 13.1
lfemur -1.17598 3.80215 -26.6716
ltibia 21.5961
lfoot -11.2058 2.17189
ltoes -23.063
615
root 2.45648 17.9506 2.19326 177.672 225.537 185.826
lowerback 11.5681 0.528846 -5.91632
upperback 1.94092 -0.0789057 -0.283054
thorax -4.44542 0.0300638 3.05357
lowerneck -15.1347 -5.727 -12.6825
upperneck 34.2012 -8.98695 10.359
head 15.7125 -4.30416 4.98446
rclavicle 6.05051e-014 -1.08338e-014
rhumerus -37.1155 25.2829 -97.7246
rradius 99.1824
rwrist -4.9512
rhand -21.9661 15.5134
rfingers 7.12502
rthumb 4.44148 -14.42
lclavicle 6.05051e-014 -1.08338e-014
lhumerus -30.924 -39.9777 89.6745
lradius 97.6508
lwrist -9.56629
lhand -19.6974 20.8422
lfingers 7.12502
lthumb 6.63198 50.7183
rfemur -27.7271 -11.7167 19.0386
rtibia 30.8757
rfoot -8.78383 -7.83531
rtoes 15.3134
lfemur -0.80256 4.10357 -26.6163
ltibia 20.8827
lfoot -10.9234 1.53522
ltoes -24.277
616
root 2.38506 17.9535 2.26772 177.602 225.679 186.086
lowerback 11.4516 0.543868 -5.93055
upperback 1.93328 -0.0568929 -0.364922
thorax -4.39117 0.0392007 2.97181
lowerneck -14.995 -5.7513 -12.9217
upperneck 34.1734 -9.05207 10.5843
head 15.7078 -4.34043 5.11621
rclavicle 1.01877e-015 2.37548e-014
rhumerus -37.1894 25.1066 -97.7173
rradius 98.7662
rwrist -4.45039
rhand -22.0428 15.8782
rfingers 7.12502
rthumb 4.36745 -14.0567
lclavicle 1.01877e-015 2.37548e-014
lhumerus -30.8796 -40.1817 89.7131
lradius 97.6318
lwrist -9.79989
lhand -20.2087 21.3714
lfingers 7.12502
lthumb 6.13836 51.2625
rfemur -28.0357 -11.4865 19.0634
rtibia 29.4318
rfoot -7.78935 -8.55965
rtoes 16.6932
lfemur -0.205827 3.99733 -26.8511
ltibia 20.1497
lfoot -10.6297 1.62054
ltoes -23.2905
617
root 2.31424 17.9587 2.32718 177.432 225.654 186.537
lowerback 11.4563 0.519766 -6.178
upperback 1.89738 -0.126816 -0.479745
thorax -4.42456 0.00917738 3.00115
lowerneck -14.871 -5.76511 -13.0304
upperneck 34.1319 -9.1112 10.7359
head 15.6855 -4.36545 5.19172
rclavicle -2.87244e-014 -1.27222e-014
rhumerus -37.1943 24.9202 -97.7539
rradius 98.9581
rwrist -3.88117
rhand -21.97 15.6957
rfingers 7.12502
rthumb 4.43771 -14.2378
lclavicle -2.87244e-014 -1.27222e-014
lhumerus -30.7105 -40.4562 89.6388
lradius 97.5325
lwrist -10.0868
lhand -20.5509 21.841
lfingers 7.12502
lthumb 5.80799 51.7414
rfemur -28.3696 -11.1317 18.9225
rtibia 28.1624
rfoot -6.85257 -9.63116
rtoes 16.3585
lfemur 0.307482 4.24311 -27.1061
ltibia 19.4296
lfoot -10.4179 1.26855
ltoes -22.6858
618
root 2.24471 17.9662 2.37746 177.372 225.6 186.997
lowerback 11.3799 0.505176 -6.45658
upperback 1.85906 -0.182115 -0.601775
thorax -4.41665 -0.0142535 3.03777
lowerneck -14.8899 -5.80111 -13.0015
upperneck 34.1428 -9.18943 10.7726
head 15.71 -4.38993 5.1883
rclavicle -1.8487e-014 3.47873e-015
rhumerus -37.0929 24.8066 -97.7484
rradius 98.8987
rwrist -3.4746
rhand -22.0874 15.8048
rfingers 7.12502
rthumb 4.32437 -14.1311
lclavicle -1.8487e-014 3.47873e-015
lhumerus -30.4369 -40.7654 89.5258
lradius 97.4061
lwrist -10.4115
lhand -20.0326 21.5436
lfingers 7.12502
lthumb 6.3083 51.4296
rfemur -28.8151 -10.4936 18.6945
rtibia 27.0716
rfoot -6.38807 -11.1105
rtoes 15.8481
lfemur 0.65258 4.54503 -27.3254
ltibia 18.7237
lfoot -10.1639 0.836212
ltoes -22.7273
619
root 2.16439 17.9649 2.46583 177.123 226.087 187.269
lowerback 11.1291 0.624356 -6.38251
upperback 2.01254 0.00268933 -0.717145
thorax -4.13476 0.0621966 2.847
lowerneck -14.9805 -5.8356 -12.9267
upperneck 34.1656 -9.23159 10.7081
head 15.7412 -4.40266 5.13779
rclavicle -5.28519e-014 1.96797e-014
rhumerus -36.9229 24.7929 -97.6846
rradius 98.7156
rwrist -3.22221
rhand -22.0395 16.1087
rfingers 7.12502
rthumb 4.37065 -13.8262
lclavicle -5.28519e-014 1.96797e-014
lhumerus -30.1459 -40.9976 89.4283
lradius 97.3029
lwrist -10.62
lhand -19.4031 21.2897
lfingers 7.12502
lthumb 6.91602 51.1567
rfemur -28.9057 -9.53479 18.4663
rtibia 26.1638
rfoot -6.51145 -12.4403
rtoes 15.7846
lfemur 1.42012 4.44731 -27.6175
ltibia 18.0756
lfoot -9.90073 1.34467
ltoes -22.1078
620
root 2.08902 17.9611 2.52516 176.975 226.201 187.591
lowerback 11.1253 0.619429 -6.59272
upperback 2.01321 -0.0302083 -0.745413
thorax -4.12847 0.0480287 2.94032
lowerneck -14.9766 -5.83117 -12.9698
upperneck 34.1627 -9.18648 10.6428
head 15.7294 -4.39729 5.12459
rclavicle 3.42158e-014 1.09332e-014
rhumerus -36.9369 24.8935 -97.6609
rradius 98.4834
rwrist -2.94033
rhand -22.0313 16.4103
rfingers 7.12502
rthumb 4.37856 -13.5244
lclavicle 3.42158e-014 1.09332e-014
lhumerus -30.022 -41.0822 89.4392
lradius 97.1866
lwrist -11.06
lhand -19.0048 21.6844
lfingers 7.12502
lthumb 7.30053 51.5384
rfemur -29.1238 -8.7391 18.2556
rtibia 25.4045
rfoot -7.15191 -14.1356
rtoes 14.7767
lfemur 1.91748 4.78679 -27.7431
ltibia 17.5485
lfoot -9.74881 1.06008
ltoes -22.6928
621
root 2.01302 17.9528 2.58972 176.876 226.265 187.872
lowerback 11.0657 0.618811 -6.68035
upperback 1.98227 -0.0394758 -0.784372
thorax -4.12696 0.0451085 2.94991
lowerneck -14.9133 -5.85063 -13.1204
upperneck 34.1989 -9.22466 10.7466
head 15.7564 -4.42419 5.19374
rclavicle 7.33267e-014 4.96962e-015
rhumerus -36.9581 24.9876 -97.6051
rradius 98.4899
rwrist -2.75628
rhand -22.091 16.381
rfingers 7.12502
rthumb 4.32089 -13.5549
lclavicle 7.33267e-014 4.96962e-015
lhumerus -30.0674 -41.2492 89.581
lradius 97.1004
lwrist -11.6932
lhand -18.7749 22.0047
lfingers 7.12502
lthumb 7.52239 51.8509
rfemur -29.3622 -8.46388 18.2281
rtibia 24.787
rfoot -8.00214 -15.5785
rtoes 12.3176
lfemur 2.38087 4.96019 -27.8686
ltibia 17.1344
lfoot -9.71522 0.858807
ltoes -23.2208
622
root 1.93991 17.9401 2.65954 176.728 226.422 188.093
lowerback 11.1177 0.654339 -6.63819
upperback 1.93496 0.00313608 -0.847023
thorax -4.21002 0.0688712 2.85429
lowerneck -14.8725 -5.85596 -12.9645
upperneck 34.3271 -9.25685 10.6069
head 15.7952 -4.43935 5.10368
rclavicle -7.66563e-014 4.57205e-015
rhumerus -37.002 24.8877 -97.6233
rradius 98.2201
rwrist -2.42872
rhand -22.0637 16.4792
rfingers 7.12502
rthumb 4.34728 -13.4562
lclavicle -7.66563e-014 4.57205e-015
lhumerus -30.2338 -41.5502 89.7908
lradius 96.9636
lwrist -11.8505
lhand -18.8658 21.9117
lfingers 7.12502
lthumb 7.43464 51.7611
rfemur -29.5145 -8.45019 18.3536
rtibia 24.3408
rfoot -8.70753 -16.6084
rtoes 8.23814
lfemur 2.90042 5.02477 -27.9974
ltibia 16.8386
lfoot -9.71519 0.840686
ltoes -22.8227
623
root 1.86888 17.9258 2.73396 176.396 226.724 188.456
lowerback 11.2404 0.722905 -6.64265
upperback 1.92332 0.0769004 -0.941937
thorax -4.29762 0.107157 2.74634
lowerneck -14.8815 -5.81773 -12.6733
upperneck 34.4095 -9.18807 10.3075
head 15.7853 -4.41021 4.93395
rclavicle 5.76724e-014 7.7526e-015
rhumerus -37.1509 25.447 -97.5355
rradius 98.517
rwrist -2.54251
rhand -22.1533 15.8717
rfingers 7.12502
rthumb 4.26078 -14.0654
lclavicle 5.76724e-014 7.7526e-015
lhumerus -30.2323 -41.8897 89.887
lradius 96.7256
lwrist -11.6246
lhand -18.97 21.8719
lfingers 7.12502
lthumb 7.33411 51.7248
rfemur -29.608 -8.6436 18.4659
rtibia 24.0907
rfoot -9.27666 -17.1522
rtoes 3.94581
lfemur 3.4889 5.08618 -28.2833
ltibia 16.5508
lfoot -9.68104 1.11176
ltoes -23.5343
624
root 1.7942 17.9211 2.78906 176.286 226.59 188.869
lowerback 11.2404 0.650891 -6.87805
upperback 1.84884 -0.0508048 -0.967971
thorax -4.36337 0.0513682 2.87001
lowerneck -14.8175 -5.75714 -12.7799
upperneck 34.4657 -9.09031 10.3353
head 15.7897 -4.38375 4.98821
rclavicle 4.09248e-014 4.57205e-015
rhumerus -37.142 25.5261 -97.4443
rradius 98.4016
rwrist -2.48008
rhand -21.9551 15.7417
rfingers 7.12502
rthumb 4.45212 -14.1915
lclavicle 4.09248e-014 4.57205e-015
lhumerus -30.192 -42.0526 90.0295
lradius 96.4298
lwrist -11.5613
lhand -19.0277 22.0114
lfingers 7.12502
lthumb 7.27845 51.8663
rfemur -29.8817 -8.7239 18.4387
rtibia 24.0441
rfoot -10.1863 -18.0004
rtoes 3.18138
lfemur 3.79935 5.40718 -28.4193
ltibia 16.2218
lfoot -9.66974 0.661096
ltoes -24.8101
625
root 1.723 17.9062 2.85282 176.014 227.083 189.223
lowerback 11.3291 0.795211 -6.99038
upperback 1.82345 0.115954 -0.988922
thorax -4.45624 0.138283 2.88609
lowerneck -14.5823 -5.72083 -13.2148
upperneck 34.5019 -9.06643 10.6652
head 15.7985 -4.40154 5.22474
rclavicle -1.04362e-015 1.94809e-014
rhumerus -37.1294 25.7179 -97.2939
rradius 98.2994
rwrist -2.42068
rhand -21.8287 15.6184
rfingers 7.12502
rthumb 4.57419 -14.3122
lclavicle -1.04362e-015 1.94809e-014
lhumerus -30.2859 -42.1059 90.3131
lradius 96.1875
lwrist -11.5322
lhand -18.8669 22.0201
lfingers 7.12502
lthumb 7.43364 51.8695
rfemur -30.1735 -9.38576 18.8531
rtibia 24.1854
rfoot -9.74739 -17.6193
rtoes 2.51221
lfemur 4.35421 5.80023 -28.5862
ltibia 15.8114
lfoot -9.59057 0.623219
ltoes -24.6842
626
root 1.65037 17.9037 2.91922 176.196 226.744 189.408
lowerback 11.1153 0.591898 -6.90992
upperback 1.75003 -0.127624 -1.01246
thorax -4.39042 0.0173711 2.85217
lowerneck -14.5017 -5.67622 -13.3223
upperneck 34.5363 -8.9856 10.6728
head 15.7892 -4.38503 5.2658
rclavicle 1.7344e-014 -3.85642e-014
rhumerus -37.0893 26.0794 -97.1928
rradius 98.1834
rwrist -2.3649
rhand -22.0251 15.6359
rfingers 7.12502
rthumb 4.38452 -14.2987
lclavicle 1.7344e-014 -3.85642e-014
lhumerus -30.3016 -42.0954 90.4673
lradius 95.9239
lwrist -11.61
lhand -18.4124 22.2215
lfingers 7.12502
lthumb 7.87232 52.0549
rfemur -30.6815 -10.5096 19.2836
rtibia 24.477
rfoot -8.74237 -17.3054
rtoes 3.73184
lfemur 4.64882 5.5249 -28.6345
ltibia 15.2607
lfoot -9.31036 0.0985927
ltoes -22.8767
627
root 1.58189 17.8969 2.97976 176.06 226.88 189.61
lowerback 11.2533 0.560761 -6.84823
upperback 1.76967 -0.176001 -1.06303
thorax -4.44198 -0.00703682 2.77195
lowerneck -14.5771 -5.59765 -13.059
upperneck 34.5353 -8.82607 10.3859
head 15.7415 -4.31467 5.11832
rclavicle -7.688e-014 4.96962e-014
rhumerus -36.9357 26.1676 -97.1742
rradius 97.8684
rwrist -2.1857
rhand -22.172 15.7897
rfingers 7.12502
rthumb 4.24266 -14.1477
lclavicle -7.688e-014 4.96962e-014
lhumerus -30.2009 -42.0592 90.5217
lradius 95.5424
lwrist -11.6344
lhand -18.4916 22.5165
lfingers 7.12502
lthumb 7.7959 52.3527
rfemur -30.9793 -11.5957 19.8709
rtibia 24.8236
rfoot -6.88665 -16.1535
rtoes 8.17619
lfemur 5.21788 5.45142 -28.7025
ltibia 14.742
lfoot -9.03281 -0.069523
ltoes -21.9283
